<svg width="17" height="18" viewBox="0 0 17 18" fill="none" xmlns="http://www.w3.org/2000/svg">
<path d="M8.5 17C12.9183 17 16.5 13.4183 16.5 9C16.5 4.58172 12.9183 1 8.5 1C4.08172 1 0.5 4.58172 0.5 9C0.5 13.4183 4.08172 17 8.5 17Z" stroke="#EFF0F7" stroke-linecap="round" stroke-linejoin="round"/>
<path d="M8.50001 17C10.4637 17 12.0556 13.4183 12.0556 9C12.0556 4.58172 10.4637 1 8.50001 1C6.53633 1 4.94446 4.58172 4.94446 9C4.94446 13.4183 6.53633 17 8.50001 17Z" stroke="#EFF0F7" stroke-linecap="round" stroke-linejoin="round"/>
<path d="M0.5 9.00001C0.5 10.9637 4.08172 12.5556 8.5 12.5556C12.9183 12.5556 16.5 10.9637 16.5 9.00001C16.5 7.03633 12.9183 5.44446 8.5 5.44446C4.08172 5.44446 0.5 7.03633 0.5 9.00001Z" stroke="#EFF0F7" stroke-linecap="round" stroke-linejoin="round"/>
</svg>
